<?xml version="1.0" encoding="UTF-8"?>
<svg width="700pt" height="700pt" version="1.1" viewBox="0 0 700 700" xmlns="http://www.w3.org/2000/svg">
 <g>
  <path d="m155.36 216.49h28.699l-0.003906 3.7305v119.59l0.003906 3.7305h-32.348v-127.05z"/>
  <path d="m240.84 332.8v114.98h-25.184v-116.15z"/>
  <path d="m501.04 274.73h53.613c2.9531 0 5.3477 2.3945 5.3477 5.3477s-2.3945 5.3477-5.3477 5.3477h-53.613c-2.9531 0-5.3477-2.3945-5.3477-5.3477s2.3945-5.3477 5.3477-5.3477zm-10.383-50.367 51.785-13.875c2.8359-0.76172 5.7852 0.94531 6.543 3.7812 0.75781 2.8359-0.94531 5.7812-3.7812 6.5391l-51.785 13.875c-2.8359 0.76172-5.7852-0.94531-6.543-3.7812-0.75781-2.8359 0.94531-5.7812 3.7812-6.5391zm-17.594-40.203 46.43-26.805c2.5469-1.4727 5.8203-0.60156 7.293 1.9453 1.4766 2.5469 0.60547 5.8242-1.9453 7.2969l-46.43 26.805c-2.5469 1.4727-5.8203 0.60156-7.293-1.9453-1.4766-2.5469-0.60547-5.8242 1.9453-7.2969zm20.352 141.31 51.785 13.875c2.8359 0.76172 4.5391 3.7031 3.7812 6.5391-0.75781 2.8359-3.7031 4.543-6.543 3.7812l-51.785-13.875c-2.8359-0.76172-4.5391-3.7031-3.7812-6.5391 0.75781-2.8359 3.7031-4.543 6.543-3.7812zm-15.004 41.285 46.43 26.805c2.5508 1.4727 3.418 4.75 1.9453 7.2969-1.4766 2.5469-4.7461 3.4141-7.293 1.9453l-46.43-26.805c-2.5508-1.4727-3.4219-4.75-1.9453-7.2969 1.4766-2.5469 4.7461-3.4141 7.293-1.9453z" fill-rule="evenodd"/>
  <path d="m144.16 227.79h11.832v104.44h-15.988v-104.44z"/>
  <path d="m422.84 125.76c-74.844 55.988-138.86 103.86-230.22 94.027v120.43l23.039-1.2891 25.184 1.4531c67.238 8.0273 121.03 48.254 182 93.863 10.793 8.0742 21.809 16.312 32.512 24.109l5.5938 4.0742v-364.84l-5.5938 4.0742c-10.703 7.7969-21.715 16.035-32.512 24.109z" fill-rule="evenodd"/>
 </g>
</svg>
