<svg xmlns="http://www.w3.org/2000/svg" width="532.778" height="560.091" viewBox="0 0 532.778 560.091">
  <g id="noun-call-2442988" transform="translate(-83.664 0.035)">
    <path id="Path_49" data-name="Path 49" d="M465.3,558.88a241.657,241.657,0,0,1-106.07-42.727A592.652,592.652,0,0,1,259.5,428.567c-36.68-39.2-74.031-77.895-106.4-121.13-25.48-34.719-48.273-71.117-60.707-112.95A178.207,178.207,0,0,1,85.783,112c5.6-32.984,23.07-59.809,46.984-82.266A200.5,200.5,0,0,1,164.744,6.381a41.162,41.162,0,0,1,45.246.73,162.392,162.392,0,0,1,69.16,82.934,30.008,30.008,0,0,1-3.3,30.352c-8.008,10.809-16.352,21.336-24.414,32.145-7.113,9.574-14.5,18.984-20.832,29.062v0a26.773,26.773,0,0,0,.277,31.36c15.961,22.4,31.414,45.473,48.777,66.809a849.685,849.685,0,0,0,103.94,107.69c8.4,7.223,17.414,13.609,26.375,20.16a25.269,25.269,0,0,0,27.16,2.465,305.99,305.99,0,0,0,28-15.684c12.543-8.008,24.863-16.238,37.184-24.133a32.7,32.7,0,0,1,34.16-.672,166.289,166.289,0,0,1,73.918,72.8,44.791,44.791,0,0,1-4.031,50.793c-30.969,40.656-70.559,65.742-123.2,66.863a173.861,173.861,0,0,1-17.863-1.176Z"/>
  </g>
</svg>
