<svg xmlns="http://www.w3.org/2000/svg" width="455" height="455" viewBox="0 0 455 455">
  <g id="dashboard" transform="translate(-122.5 -52.5)">
    <path id="Path_65" data-name="Path 65" d="M332.5,70A17.551,17.551,0,0,0,315,52.5H140A17.551,17.551,0,0,0,122.5,70V245A17.551,17.551,0,0,0,140,262.5H315A17.551,17.551,0,0,0,332.5,245Z"/>
    <path id="Path_66" data-name="Path 66" d="M577.5,70A17.551,17.551,0,0,0,560,52.5H385A17.551,17.551,0,0,0,367.5,70V245A17.551,17.551,0,0,0,385,262.5H560A17.551,17.551,0,0,0,577.5,245Z"/>
    <path id="Path_67" data-name="Path 67" d="M385,507.5H560A17.551,17.551,0,0,0,577.5,490V315A17.551,17.551,0,0,0,560,297.5H385A17.551,17.551,0,0,0,367.5,315V490A17.551,17.551,0,0,0,385,507.5Z"/>
    <path id="Path_68" data-name="Path 68" d="M315,297.5H140A17.551,17.551,0,0,0,122.5,315V490A17.551,17.551,0,0,0,140,507.5H315A17.551,17.551,0,0,0,332.5,490V315A17.551,17.551,0,0,0,315,297.5Z"/>
  </g>
</svg>
