<svg xmlns="http://www.w3.org/2000/svg" width="461.345" height="455" viewBox="0 0 461.345 455">
  <g id="history" transform="translate(-84.013 -18.48)">
    <path id="Path_112" data-name="Path 112" d="M340.554,134.4a25.1,25.1,0,0,0-25.275,25.275v114.7a25.626,25.626,0,0,0,13.609,22.359l71.932,38.395a25.905,25.905,0,0,0,11.666,2.915,24.715,24.715,0,0,0,22.359-13.609c6.8-12.151,1.942-27.706-10.693-34.51l-58.324-31.106V159.672c.485-14.093-11.178-25.275-25.275-25.275Z" transform="translate(-30.546 -15.311)"/>
    <path id="Path_113" data-name="Path 113" d="M479.633,85.067C436.376,42.3,379.51,18.48,318.756,18.48c-60.269,0-116.648,22.844-159.419,65.128L136.008,60.279c-8.747-8.747-23.816-4.374-26.733,7.777L84.486,175.47a15.615,15.615,0,0,0,18.957,18.954l107.413-24.787c12.151-2.915,16.524-17.982,7.777-26.732L195.79,120.062a93.474,93.474,0,0,1,7.29-6.8c65.614-58.324,165.251-57.839,231.352,0a176.9,176.9,0,0,1-5.346,269.749c-62.7,51.033-154.559,52.007-218.229,2.43a173.417,173.417,0,0,1-50.546-62.212,26.533,26.533,0,0,0-23.329-14.581,28.357,28.357,0,0,0-6.319.973,26.118,26.118,0,0,0-17.011,36.453,222.748,222.748,0,0,0,49.571,67.071c85.056,79.224,219.687,80.682,306.687,2.915,46.661-42.284,73.878-100.123,75.335-162.821,1.942-64.158-21.386-123.452-65.615-168.168Z"/>
  </g>
</svg>
