<svg xmlns="http://www.w3.org/2000/svg" width="543.83" height="322.294" viewBox="0 0 543.83 322.294">
  <g id="noun-money-12033" transform="translate(-80.83 -113.88)">
    <path id="Path_51" data-name="Path 51" d="M536.15,202.37V416.25H100.76V202.37H536.15m19.93-19.926H80.83v253.73H556.08Z"/>
    <path id="Path_52" data-name="Path 52" d="M590.77,411.47H570.844V167.7H105.554V147.778l485.21-.008Z"/>
    <path id="Path_53" data-name="Path 53" d="M624.66,377.57H604.73V133.81H139.45V113.88H624.66Z"/>
    <path id="Path_54" data-name="Path 54" d="M214.29,308.94a102.842,102.842,0,0,1,62.844-94.762l-163.74,0v190.26h165.62a102.809,102.809,0,0,1-64.727-95.492Zm142.79-94.766A102.831,102.831,0,0,1,355.2,404.428h168.32V214.178Z" fill-rule="evenodd"/>
    <path id="Path_55" data-name="Path 55" d="M307.31,384.71V367.167c-12.387-.559-24.406-4.078-31.422-7.953l5.543-21.621a65.409,65.409,0,0,0,30.684,8.121c10.719,0,17.93-4.238,17.93-11.453,0-7.035-5.914-11.465-19.773-16.082C290.487,311.527,277,302.277,277,284.355c0-16.441,11.465-29.211,31.238-32.9V233.894h18.117v16.273a66.683,66.683,0,0,1,26.992,6.086L347.8,277.148a57.367,57.367,0,0,0-26.609-6.469c-12.02,0-15.9,5.355-15.9,10.535,0,5.918,6.473,9.98,22.367,15.715,22,7.766,30.684,17.922,30.684,34.746,0,16.453-11.465,30.488-32.723,34.008v19.023l-18.3,0Z" fill-rule="evenodd"/>
  </g>
</svg>
