<svg xmlns="http://www.w3.org/2000/svg" width="379.696" height="448" viewBox="0 0 379.696 448">
  <path id="Path_49" data-name="Path 49" d="M534.24,455.46a27.981,27.981,0,0,1-22.4,11.2l-116.11,0a46.679,46.679,0,0,1-91.468,0H188.154a28.113,28.113,0,0,1-26.883-35.84,9.65,9.65,0,0,1,1.586-3.078c47.324-61.324,65.805-126.29,65.805-231.75a10.237,10.237,0,0,1,.188-1.68c8.027-44.426,40.6-80.922,83.812-94.922V93.327a37.332,37.332,0,1,1,74.664,0v6.16a127.614,127.614,0,0,1,41.254,22.68c22.4,18.762,37.52,44.332,42.652,72.148a10.1,10.1,0,0,1,.094,1.68c0,105.46,18.48,170.43,65.8,231.75a8.073,8.073,0,0,1,1.586,3.078,27.692,27.692,0,0,1-4.481,24.641Z" transform="translate(-160.166 -55.995)"/>
</svg>
