<svg xmlns="http://www.w3.org/2000/svg" width="509.888" height="535.362" viewBox="0 0 509.888 535.362">
  <g id="noun-order-2794302" transform="translate(-95.087 -12.426)">
    <path id="Path_65" data-name="Path 65" d="M361.05,507.12c-7.711-4.047-15.422-8.148-23.133-12.2q-27.809-14.684-55.562-29.367-33.715-17.8-67.484-35.656-29.038-15.34-58.133-30.68c-9.406-4.977-18.758-10.172-28.273-14.93-.109-.055-.273-.164-.383-.219L138.91,402.94V187.252c0-9.953.219-19.906,0-29.859v-.383c-10.992,6.289-21.93,12.578-32.922,18.867,7.711,4.1,15.422,8.148,23.133,12.25q27.809,14.684,55.562,29.367,33.716,17.8,67.484,35.656,29.039,15.34,58.133,30.734c9.406,4.977,18.758,10.172,28.273,14.93.109.055.273.164.383.219l-10.828-18.867V495.634c0,9.953-.164,19.906,0,29.859v.383c0,11.43,10.062,22.422,21.875,21.875,11.867-.547,21.875-9.625,21.875-21.875V310.408c0-9.953.164-19.906,0-29.859v-.383c0-7.437-4.1-15.312-10.828-18.867-7.711-4.1-15.422-8.148-23.133-12.25q-27.809-14.684-55.562-29.367-33.715-17.8-67.484-35.656-29.038-15.341-58.133-30.734c-9.406-4.977-18.812-10.062-28.273-14.93-.109-.055-.273-.164-.383-.219-7-3.719-15.094-4.1-22.094,0A21.948,21.948,0,0,0,95.16,157.01V372.7c0,9.953-.164,19.906,0,29.859v.383c0,7.438,4.1,15.312,10.828,18.867,7.711,4.047,15.422,8.148,23.133,12.2q27.809,14.684,55.562,29.367,33.716,17.8,67.484,35.656,29.039,15.34,58.133,30.68c9.406,4.977,18.812,10.062,28.273,14.93.109.055.273.164.383.219a22.9,22.9,0,0,0,16.844,2.188c5.086-1.422,10.555-5.3,13.07-10.062,5.359-10.008,2.953-24.117-7.82-29.859Z"/>
    <path id="Path_66" data-name="Path 66" d="M571.98,384.07c-7.711,4.047-15.422,8.148-23.133,12.2q-27.809,14.684-55.562,29.367-33.715,17.8-67.484,35.656-29.039,15.34-58.133,30.68c-9.406,4.977-18.977,9.789-28.273,14.93-.109.055-.273.164-.383.219,10.992,6.289,21.93,12.578,32.922,18.867V310.516c0-9.953.219-19.906,0-29.859v-.383l-10.828,18.867c7.711-4.1,15.422-8.148,23.133-12.25q27.809-14.684,55.562-29.367,33.715-17.8,67.484-35.656,29.039-15.341,58.133-30.734c9.406-4.977,18.977-9.789,28.273-14.93.109-.055.273-.164.383-.219-10.992-6.289-21.93-12.578-32.922-18.867V372.806c0,9.953-.164,19.906,0,29.859v.383c0,11.43,10.062,22.422,21.875,21.875,11.867-.547,21.875-9.625,21.875-21.875V187.36c0-9.953.164-19.906,0-29.859v-.383a21.949,21.949,0,0,0-10.828-18.867c-7-4.1-15.094-3.719-22.094,0-7.711,4.1-15.422,8.148-23.133,12.25q-27.809,14.684-55.562,29.367-33.715,17.8-67.484,35.656-29.039,15.341-58.133,30.734c-9.406,4.977-18.977,9.789-28.273,14.93-.109.055-.273.164-.383.219-6.727,3.555-10.828,11.43-10.828,18.867V495.742c0,9.953-.164,19.906,0,29.859v.383a21.949,21.949,0,0,0,10.828,18.867c7,4.1,15.094,3.719,22.094,0,7.711-4.047,15.422-8.148,23.133-12.2q27.809-14.684,55.562-29.367,33.715-17.8,67.484-35.656,29.039-15.34,58.133-30.68c9.406-4.977,18.977-9.734,28.273-14.93.109-.055.273-.164.383-.219,10.117-5.359,14.055-20.289,7.875-29.914-6.672-10.281-19.086-13.508-29.969-7.82Z"/>
    <path id="Path_67" data-name="Path 67" d="M571.98,138.2c-7.711,4.1-15.422,8.148-23.133,12.25q-27.809,14.684-55.562,29.367-33.715,17.8-67.484,35.656-29.039,15.341-58.133,30.734c-9.406,4.977-18.977,9.789-28.273,14.93-.109.055-.273.164-.383.219h22.094c-7.711-4.1-15.422-8.148-23.133-12.25q-27.809-14.684-55.562-29.367-33.715-17.8-67.484-35.656-29.038-15.341-58.133-30.734c-9.406-4.977-18.758-10.172-28.273-14.93-.109-.055-.273-.164-.383-.219v37.789c7.711-4.047,15.422-8.148,23.133-12.2q27.809-14.684,55.562-29.367,33.716-17.8,67.484-35.656,29.039-15.34,58.133-30.734c9.406-4.977,18.977-9.789,28.273-14.93.109-.055.273-.164.383-.219H339.012c7.711,4.047,15.422,8.148,23.133,12.195q27.809,14.684,55.562,29.367,33.715,17.8,67.484,35.656,29.039,15.341,58.133,30.734c9.406,4.977,18.812,10.062,28.273,14.93.109.055.273.164.383.219a22.9,22.9,0,0,0,16.844,2.188c5.086-1.422,10.555-5.3,13.07-10.062,5.359-10.117,2.953-24.227-7.875-29.914-7.82-4.1-15.641-8.258-23.461-12.359q-27.891-14.684-55.727-29.422L447.073,60.653q-28.957-15.341-57.914-30.625c-9.3-4.922-18.539-10.008-27.891-14.711-7.6-3.828-15.148-3.883-22.7,0-1.039.547-2.023,1.094-3.062,1.586-4.812,2.516-9.625,5.086-14.438,7.6Q294.74,38.45,268.354,52.341q-33.468,17.718-67.1,35.492-30.351,16-60.648,32.047-16.57,8.777-33.141,17.5c-.492.273-1.039.547-1.531.82-14.273,7.547-14.219,30.242,0,37.789,7.82,4.156,15.641,8.258,23.461,12.414q27.891,14.766,55.727,29.477Q219,235.763,252.877,253.7q28.957,15.34,57.914,30.625c9.3,4.922,18.539,10.008,27.891,14.766,7.6,3.828,15.148,3.883,22.7,0,1.039-.547,2.023-1.094,3.063-1.586,4.813-2.516,9.625-5.086,14.438-7.6q26.332-13.945,52.719-27.891,33.551-17.718,67.156-35.492,30.351-16,60.648-32.047l33.141-17.555c.492-.273,1.039-.547,1.531-.82,10.117-5.359,14.055-20.289,7.875-29.914-6.672-10.445-19.086-13.727-29.969-7.984Z"/>
    <path id="Path_68" data-name="Path 68" d="M244.51,237.62c7.711-4.1,15.422-8.148,23.133-12.25Q295.452,210.686,323.205,196q33.715-17.8,67.484-35.656,29.039-15.341,58.133-30.734c9.406-4.977,18.977-9.789,28.273-14.93.109-.055.273-.164.383-.219,10.117-5.359,14.055-20.289,7.875-29.914a22.411,22.411,0,0,0-29.914-7.875c-7.711,4.1-15.422,8.148-23.133,12.25q-27.809,14.684-55.562,29.367-33.715,17.8-67.484,35.656-29.039,15.341-58.133,30.734c-9.406,4.977-18.977,9.789-28.273,14.93-.109.055-.273.164-.383.219-10.117,5.359-14.055,20.289-7.875,29.914a22.307,22.307,0,0,0,29.914,7.875Z"/>
  </g>
</svg>
