<?xml version="1.0" encoding="UTF-8"?>
<svg width="700pt" height="700pt" version="1.1" viewBox="0 0 700 700" xmlns="http://www.w3.org/2000/svg">
 <g>
  <path d="m525 70c0-19.32-15.68-35-35-35h-280c-19.32 0-35 15.68-35 35v35h350z"/>
  <path d="m560 140h-420c-19.32 0-35 15.68-35 35v210c0 19.32 15.68 35 35 35h35v70c0 19.32 15.68 35 35 35h280c19.32 0 35-15.68 35-35v-70h35c19.32 0 35-15.68 35-35v-210c0-19.32-15.68-35-35-35zm-70 350h-280v-175h280zm35-245h-70v-35h70z"/>
  <path d="m245 420h105v35h-105z"/>
  <path d="m245 350h210v35h-210z"/>
 </g>
</svg>
