<?xml version="1.0" encoding="UTF-8"?>
<svg width="700pt" height="700pt" version="1.1" viewBox="0 0 700 700" xmlns="http://www.w3.org/2000/svg">
 <path d="m280 23.332c0-12.887 10.445-23.332 23.332-23.332h93.336c12.887 0 23.332 10.445 23.332 23.332v58.625c7.0273 2.4805 13.879 5.3281 20.535 8.5117l41.457-41.457c4.3789-4.375 10.312-6.832 16.5-6.832s12.121 2.457 16.5 6.832l65.996 65.996c9.1133 9.1133 9.1133 23.887 0 33l-41.457 41.457c3.1836 6.6562 6.0312 13.512 8.5117 20.535h58.625c12.887 0 23.332 10.445 23.332 23.332v93.336c0 12.887-10.445 23.332-23.332 23.332h-58.625c-2.4805 7.0273-5.3281 13.879-8.5117 20.535l41.457 41.461c9.1133 9.1094 9.1133 23.883 0 32.996l-65.996 65.996c-4.3789 4.375-10.312 6.8359-16.5 6.8359s-12.121-2.4609-16.496-6.8359l-41.461-41.457c-6.6562 3.1836-13.508 6.0312-20.535 8.5117v58.625c0 12.887-10.445 23.332-23.332 23.332h-93.336c-12.887 0-23.332-10.445-23.332-23.332v-58.625c-7.0234-2.4805-13.879-5.3281-20.535-8.5117l-41.457 41.457c-9.1133 9.1133-23.887 9.1133-33 0l-65.996-65.996c-4.375-4.3789-6.8359-10.312-6.8359-16.5s2.4609-12.121 6.8359-16.496l41.457-41.461c-3.1836-6.6562-6.0312-13.508-8.5117-20.535h-58.625c-12.887 0-23.332-10.445-23.332-23.332v-93.336c0-12.887 10.445-23.332 23.332-23.332h58.625c2.4805-7.0234 5.3281-13.879 8.5117-20.535l-41.457-41.457c-9.1133-9.1133-9.1133-23.887 0-33l65.996-65.996c9.1133-9.1133 23.887-9.1133 33 0l41.457 41.457c6.6562-3.1836 13.512-6.0312 20.535-8.5117zm-23.332 256.67c0-51.547 41.785-93.332 93.332-93.332s93.332 41.785 93.332 93.332-41.785 93.332-93.332 93.332-93.332-41.785-93.332-93.332z" fill-rule="evenodd"/>
</svg>
