<svg xmlns="http://www.w3.org/2000/svg" width="535.944" height="431.291" viewBox="0 0 535.944 431.291">
  <g id="noun-sound-1818835" transform="translate(-82.027 -64.354)">
    <path id="Path_64" data-name="Path 64" d="M543.65,100.3a16.407,16.407,0,0,0-23.2,23.2,221.589,221.589,0,0,1,0,313,16.406,16.406,0,1,0,23.2,23.2,254.418,254.418,0,0,0,0-359.41Z"/>
    <path id="Path_65" data-name="Path 65" d="M491.06,152.89a16.406,16.406,0,1,0-23.2,23.2c57.3,57.3,57.3,150.53,0,207.83a16.406,16.406,0,1,0,23.2,23.2c70.094-70.094,70.094-184.14,0-254.23Z"/>
    <path id="Path_66" data-name="Path 66" d="M438.47,205.47a16.407,16.407,0,0,0-23.2,23.2,72.673,72.673,0,0,1,0,102.65,16.406,16.406,0,1,0,23.2,23.2,105.521,105.521,0,0,0,0-149.06Z"/>
    <path id="Path_67" data-name="Path 67" d="M82.027,215.96V344.04a16.4,16.4,0,0,0,16.406,16.406h83.582V199.556H98.433a16.4,16.4,0,0,0-16.406,16.406Z"/>
    <path id="Path_68" data-name="Path 68" d="M370.98,65.938a16.4,16.4,0,0,0-17.41,2.117L214.83,181.375v197.25l138.74,113.32a16.406,16.406,0,0,0,26.785-12.707V80.758a16.413,16.413,0,0,0-9.375-14.824Z"/>
  </g>
</svg>
