<svg xmlns="http://www.w3.org/2000/svg" width="516.196" height="492.787" viewBox="0 0 516.196 492.787">
  <g id="noun-star-1171152" transform="translate(383.902 86.397)">
    <path id="Path_49" data-name="Path 49" d="M349.45,33.617a11.2,11.2,0,0,0-10.105,7.719l-56.223,168.68H103.072a11.2,11.2,0,0,0-6.613,20.211l146.25,106.94-56.223,174.56v0a11.2,11.2,0,0,0,17.27,12.5l146.25-106.94,146.25,106.94a11.2,11.2,0,0,0,17.27-12.5L457.3,337.171l146.25-106.94v0a11.2,11.2,0,0,0-6.613-20.211H416.89L360.667,41.336a11.2,11.2,0,0,0-11.207-7.719Z" transform="translate(-475.811 -120)" fill-rule="evenodd"/>
  </g>
</svg>
