<svg xmlns="http://www.w3.org/2000/svg" width="77.095" height="80.51" viewBox="0 0 77.095 80.51" fill="currentColor">
  <path id="Path_49" data-name="Path 49" d="M195.4,85.319c0-5.014.246-10.1-.528-15.078A38.5,38.5,0,0,0,173.26,41.65a39.528,39.528,0,0,0-12.7-3.467,38.377,38.377,0,0,0-24.287,5.778,39.128,39.128,0,0,0-15.56,19.273,37.915,37.915,0,0,0-2.348,12.513c-.036,1.529-.009,3.048-.009,4.577V96.93a2.762,2.762,0,0,0,2.73,2.73c.6-.027,5.241.055,6.415.055h5.423a5.57,5.57,0,0,0,5.36-4.532,14.019,14.019,0,0,0,.091-2.23V76.539a9.2,9.2,0,0,0-.2-2.493A5.593,5.593,0,0,0,132.822,70c-2.457-.027-4.914,0-7.362,0a6.442,6.442,0,0,0-1.028.082,35.966,35.966,0,0,1,1.947-6.415c-.045.109-.091.218-.146.328l.273-.655c-.045.109-.091.218-.136.318a36.19,36.19,0,0,1,2.339-4.486c.455-.746.946-1.483,1.456-2.193.136-.191.283-.391.428-.573a.794.794,0,0,0,.064-.091c-.018.027-.036.045-.055.073a1.129,1.129,0,0,0-.073.091c.018-.027.273-.364.283-.364a1.138,1.138,0,0,1-.073.091.8.8,0,0,1-.073.091c.264-.328.528-.664.8-.983a37.4,37.4,0,0,1,3.713-3.785c.328-.291.664-.573,1-.846.136-.109.264-.218.4-.328l-.109.082c.045-.036.1-.073.146-.109a.126.126,0,0,1,.036-.027c.073-.064.209-.155.237-.182h.009c.691-.509,1.392-1,2.12-1.464A36.171,36.171,0,0,1,144,46c-.1.045-.2.082-.309.127l.655-.273c-.118.045-.227.1-.346.146a35.585,35.585,0,0,1,8.426-2.3c-.118.009-.246.027-.364.045.246-.036.483-.064.728-.1l-.364.055a36.254,36.254,0,0,1,8.881,0l-.364-.055c.246.036.483.064.728.1-.118-.018-.246-.036-.364-.045a35.7,35.7,0,0,1,8.426,2.3c-.109-.045-.228-.1-.337-.146l.655.273c-.1-.045-.209-.082-.309-.127a35.265,35.265,0,0,1,4.468,2.33c.746.464,1.474.946,2.193,1.456.191.136.383.283.573.428l.109.082c-.027-.027-.064-.045-.091-.073a.535.535,0,0,0-.091-.073c.027.018.337.255.364.283a.531.531,0,0,1-.091-.073c-.027-.018-.055-.045-.082-.064.328.264.655.519.974.792a37.392,37.392,0,0,1,3.785,3.713c.291.328.573.664.846,1,.109.136.218.264.318.4l-.082-.109c.036.045.073.091.109.146a.126.126,0,0,1,.027.036c.045.055.109.136.146.191.018.018.027.036.036.045l.009.009c.51.692,1,1.4,1.464,2.12a35.572,35.572,0,0,1,2.657,5c-.045-.109-.091-.227-.136-.337l.273.655c-.045-.109-.091-.209-.136-.318a35.649,35.649,0,0,1,1.938,6.388,6.224,6.224,0,0,0-.828-.073c-2.457-.027-4.914,0-7.362,0a5.65,5.65,0,0,0-5.05,2.839,6.669,6.669,0,0,0-.691,3.349V92.5c0,.555-.009,1.11,0,1.665a5.6,5.6,0,0,0,4.168,5.36,15.433,15.433,0,0,0,3.613.164h5.423a5.692,5.692,0,0,0,.965-.109,14.932,14.932,0,0,1-.573,1.774,15.346,15.346,0,0,1-1.237,2.238c-.136.2-.273.391-.409.582.036-.045.064-.082.1-.127.3-.364-.4.537-.136.173.009-.018.027-.036.036-.055l-.127.155c-.3.364-.628.719-.965,1.056s-.692.655-1.056.965l-.136.109c.009-.009.027-.018.036-.027.4-.283-.546.446-.173.136l.136-.109c-.182.127-.364.264-.546.383a16.738,16.738,0,0,1-2.266,1.265l.273-.109-.655.273c.127-.055.255-.109.373-.164a16.03,16.03,0,0,1-3.23.882c.109-.009.219-.027.337-.036-.246.036-.482.064-.728.1l.391-.055a48.289,48.289,0,0,1-5.132.091h-8.382a5.715,5.715,0,0,0-.455-.837,6.782,6.782,0,0,0-5.66-3.1c-1.083-.009-2.175,0-3.258,0h-3.485a6.807,6.807,0,0,0-5.5,2.812,6.668,6.668,0,0,0,5.06,10.519c1.019.073,2.056.018,3.076.018h4.195a6.743,6.743,0,0,0,5.787-3.458c.082-.155.164-.318.237-.483h11.729a18.29,18.29,0,0,0,5.387-.782,18.973,18.973,0,0,0,6.188-3.331,17.721,17.721,0,0,0,6.4-11.12,40.063,40.063,0,0,0,.246-5.824V85.32Z" transform="translate(-118.343 -38)"/>
</svg>
