<svg xmlns="http://www.w3.org/2000/svg" width="351.898" height="366.65" viewBox="0 0 351.898 366.65" fill="currentColor">
  <g id="noun-switch-1586564" transform="translate(-174.054 -96.672)">
    <path id="Path_49" data-name="Path 49" d="M405.42,219.68A10.389,10.389,0,0,0,415.8,209.3V180.012a10.389,10.389,0,0,0-10.383-10.383H279.3V110.6a14,14,0,0,0-24.153-9.566L178.5,182a16.329,16.329,0,0,0,0,22.4l76.535,80.965v0a14,14,0,0,0,24.149-9.566V219.681Z"/>
    <path id="Path_50" data-name="Path 50" d="M521.5,355.6l-76.535-80.965v0a14,14,0,0,0-24.149,9.566v56.117H294.586A10.383,10.383,0,0,0,284.2,350.7v29.4a10.389,10.389,0,0,0,10.383,10.383h126.12V449.4a14,14,0,0,0,24.153,9.566L521.507,378a16.329,16.329,0,0,0,0-22.4Z"/>
  </g>
</svg>
